<svg width="18" height="18" viewBox="0 0 18 18" fill="none" xmlns="http://www.w3.org/2000/svg">
<g clip-path="url(#clip0)">
<path d="M16.9779 7.66877C16.7001 7.4645 16.3549 7.20936 16.3095 7.04032C16.2602 6.85561 16.4363 6.44867 16.5788 6.12232C16.8222 5.56196 17.0741 4.98205 16.7948 4.4984C16.5122 4.00847 15.8775 3.93726 15.2647 3.86841C14.9149 3.82927 14.4798 3.78077 14.3499 3.65006C14.2192 3.52016 14.1707 3.085 14.1315 2.73518C14.0627 2.1224 13.9914 1.48848 13.5015 1.20517C13.0758 0.957876 12.445 1.17388 11.8776 1.42117C11.5638 1.55734 11.2367 1.68724 10.9588 1.6904C10.7898 1.64579 10.5355 1.29989 10.3304 1.02204C9.97748 0.543118 9.57755 0 8.99998 0C8.42319 0 8.02252 0.543118 7.66953 1.0213C7.4645 1.29912 7.21013 1.64505 6.97065 1.69825C6.76012 1.69825 6.43612 1.55738 6.12232 1.4212C5.55337 1.17391 4.92181 0.96026 4.4992 1.2052C4.00851 1.48852 3.9373 2.12243 3.86841 2.73522C3.83007 3.08504 3.78077 3.51939 3.65083 3.6501C3.52012 3.7808 3.085 3.8293 2.73595 3.86844C2.1224 3.9373 1.48768 4.00931 1.20517 4.49843C0.925777 4.98131 1.17776 5.56123 1.42117 6.12236C1.56361 6.4487 1.74047 6.85565 1.69117 7.04036C1.64579 7.2094 1.29985 7.46454 1.02281 7.6688C0.543118 8.02175 0 8.42242 0 8.99998C0 9.57755 0.543118 9.97825 1.02207 10.3312C1.29989 10.5355 1.64502 10.7906 1.69043 10.9596C1.73974 11.1444 1.56365 11.5513 1.4212 11.8776C1.1778 12.438 0.925813 13.0179 1.2052 13.5016C1.48771 13.9915 2.12243 14.0627 2.73522 14.1316C3.08504 14.1707 3.52016 14.2192 3.6501 14.3499C3.7808 14.4798 3.8293 14.915 3.86844 15.2648C3.9373 15.8776 4.00854 16.5115 4.49843 16.7948C4.92262 17.0413 5.55338 16.8261 6.12236 16.5788C6.43619 16.4426 6.75704 16.3049 7.04113 16.3096C7.21017 16.3542 7.4645 16.7001 7.66957 16.9779C8.02252 17.4569 8.42245 18 9.00002 18C9.57681 18 9.97748 17.4569 10.3297 16.9787C10.5347 16.7009 10.7891 16.3549 11.0285 16.3018C11.2398 16.3018 11.5638 16.4426 11.8769 16.5788C12.4466 16.8269 13.0774 17.0405 13.5 16.7956C13.9907 16.5122 14.0619 15.8783 14.1308 15.2648C14.1691 14.915 14.2184 14.4806 14.3484 14.3499C14.4791 14.2192 14.9142 14.1707 15.2632 14.1316C15.8768 14.0627 16.5115 13.9907 16.794 13.5016C17.0742 13.0187 16.8222 12.4388 16.578 11.8776C16.4356 11.5513 16.2595 11.1451 16.3088 10.9596C16.3542 10.7906 16.7001 10.5355 16.9772 10.3312C17.4569 9.97825 18 9.57755 18 8.99998C18 8.42242 17.4568 8.02175 16.9779 7.66877ZM16.5146 9.69963C16.099 10.0056 15.6694 10.3218 15.5536 10.7554C15.4338 11.2046 15.6514 11.7047 15.8619 12.1883C15.9965 12.4982 16.2 12.9662 16.1186 13.1079C16.0333 13.2558 15.5191 13.3137 15.1779 13.3521C14.6582 13.4108 14.1206 13.471 13.7966 13.795C13.4726 14.119 13.4123 14.6567 13.3544 15.1763C13.3161 15.5168 13.2582 16.0317 13.1095 16.117C13.0868 16.1304 13.0492 16.1335 13.0218 16.1335C12.8184 16.1335 12.499 15.9942 12.1899 15.8604C11.7047 15.6498 11.1741 15.4401 10.7578 15.5528C10.3234 15.6686 10.0072 16.0983 9.70048 16.5138C9.49387 16.794 9.18161 17.2174 9.00005 17.2174C8.8185 17.2174 8.50543 16.794 8.29963 16.5138C7.99365 16.099 7.67746 15.6694 7.24311 15.5536C7.15782 15.5309 7.06625 15.5191 6.96999 15.5191C6.59669 15.5191 6.19679 15.6929 5.81017 15.8619C5.50183 15.9957 5.18253 16.135 4.97827 16.135C4.95086 16.135 4.9133 16.1319 4.89063 16.1186C4.74194 16.0325 4.68479 15.5183 4.64645 15.1779C4.58776 14.6582 4.52749 14.1206 4.20349 13.7966C3.88026 13.4726 3.34183 13.4123 2.82219 13.3536C2.48253 13.3153 1.96759 13.2574 1.88229 13.1094C1.80012 12.9686 2.00438 12.4998 2.13898 12.1899C2.34951 11.7062 2.56705 11.2061 2.44731 10.7569C2.33069 10.3233 1.90104 10.0072 1.48628 9.70117C1.20612 9.4938 0.782706 9.18153 0.782706 8.99995C0.782706 8.81836 1.20608 8.50613 1.48628 8.29872C1.90185 7.99273 2.3315 7.67654 2.44731 7.24297C2.56705 6.79376 2.34948 6.29367 2.13898 5.81002C2.00515 5.50011 1.80089 5.03212 1.88229 4.89045C1.96839 4.74253 2.48257 4.68461 2.823 4.64704C3.34264 4.58835 3.88029 4.52807 4.20429 4.20407C4.52829 3.88007 4.58857 3.34242 4.64726 2.82278C4.68483 2.48235 4.74275 1.96817 4.89144 1.88207C4.91414 1.86876 4.95171 1.86564 4.97907 1.86564C5.18257 1.86564 5.50187 2.00493 5.8102 2.13957C6.29543 2.3501 6.82524 2.5606 7.24238 2.44713C7.67672 2.33132 7.99291 1.90166 8.29967 1.4861C8.50628 1.20594 8.81854 0.782523 9.00009 0.782523C9.18164 0.782523 9.49471 1.2059 9.70132 1.48529C10.0073 1.90009 10.3235 2.32974 10.7578 2.44555C11.1711 2.5559 11.7048 2.34929 12.19 2.13799C12.4983 2.00416 12.8177 1.86487 13.0219 1.86487C13.0493 1.86487 13.0869 1.86799 13.1096 1.8813C13.2582 1.9674 13.3154 2.48158 13.3537 2.82201C13.4124 3.34165 13.4727 3.8793 13.7967 4.2033C14.1199 4.5273 14.6583 4.58758 15.178 4.64627C15.5177 4.68461 16.0326 4.74253 16.1179 4.89045C16.2001 5.03131 15.9958 5.50011 15.8612 5.81002C15.6507 6.29367 15.4331 6.79376 15.5529 7.24297C15.6695 7.67654 16.0991 7.99269 16.5139 8.29872C16.7941 8.50609 17.2175 8.81836 17.2175 8.99995C17.2175 9.18153 16.794 9.49383 16.5146 9.69963Z" fill="white"/>
<path d="M6.65214 7.04354C6.43614 7.04354 6.26083 7.21886 6.26083 7.43486V9.39137L4.61735 7.20007C4.51639 7.06548 4.33954 7.0099 4.18065 7.0639C4.021 7.11713 3.913 7.26658 3.913 7.43486V10.5653C3.913 10.7813 4.08832 10.9566 4.30432 10.9566C4.52032 10.9566 4.69563 10.7813 4.69563 10.5653V8.60877L6.33911 10.8001C6.41424 10.9003 6.53163 10.9566 6.65214 10.9566C6.69363 10.9566 6.73509 10.9503 6.77581 10.9362C6.93546 10.883 7.04346 10.7336 7.04346 10.5653V7.43486C7.04346 7.21886 6.86814 7.04354 6.65214 7.04354Z" fill="white"/>
<path d="M9.78259 10.1739H8.60869V7.82605H9.78259C9.99859 7.82605 10.1739 7.65074 10.1739 7.43474C10.1739 7.21874 9.99859 7.04346 9.78259 7.04346H8.21737C8.00137 7.04346 7.82606 7.21877 7.82606 7.43477V10.5652C7.82606 10.7812 8.00137 10.9565 8.21737 10.9565H9.78259C9.99859 10.9565 10.1739 10.7812 10.1739 10.5652C10.1739 10.3492 9.99859 10.1739 9.78259 10.1739Z" fill="white"/>
<path d="M9.78259 8.60864H8.21737C8.00137 8.60864 7.82606 8.78396 7.82606 8.99996C7.82606 9.21596 8.00137 9.39124 8.21737 9.39124H9.78259C9.99859 9.39124 10.1739 9.21592 10.1739 8.99992C10.1739 8.78392 9.99859 8.60864 9.78259 8.60864Z" fill="white"/>
<path d="M14.5722 7.0553C14.3609 7.00288 14.1496 7.12966 14.0979 7.34016L13.6417 9.16676L13.284 8.0938C13.1776 7.7745 12.6485 7.7745 12.5413 8.0938L12.1837 9.16676L11.7275 7.34016C11.675 7.12962 11.459 7.00207 11.2532 7.0553C11.0435 7.10772 10.9167 7.31983 10.9683 7.52956L11.7509 10.66C11.7932 10.8282 11.9419 10.9495 12.1156 10.9558C12.3121 10.9636 12.4474 10.8533 12.5022 10.6889L12.9131 9.45473L13.324 10.6889C13.378 10.8493 13.5275 10.9566 13.6957 10.9566C13.7004 10.9566 13.7059 10.9566 13.7098 10.9558C13.8835 10.9495 14.0322 10.829 14.0745 10.66L14.8571 7.52956C14.9095 7.31983 14.7827 7.10772 14.5722 7.0553Z" fill="white"/>
</g>
<defs>
<clipPath id="clip0">
<rect width="18" height="18" fill="white"/>
</clipPath>
</defs>
</svg>
