<svg width="23" height="19" viewBox="0 0 23 19" fill="none" xmlns="http://www.w3.org/2000/svg">
<path d="M0.479137 9.98601L21.3638 9.98601L13.5564 17.7925C13.3725 17.9828 13.3778 18.2861 13.5681 18.47C13.7538 18.6493 14.0482 18.6493 14.2339 18.47L22.8587 9.84513C23.0461 9.65826 23.0465 9.35486 22.8596 9.1675C22.8593 9.16723 22.859 9.16691 22.8587 9.16664L14.2339 0.54178C14.05 0.351448 13.7467 0.346191 13.5563 0.530008C13.366 0.713871 13.3607 1.01718 13.5446 1.20756C13.5484 1.21155 13.5523 1.21546 13.5563 1.21932L21.3638 9.02766L0.479181 9.02766C0.214552 9.02766 7.62939e-06 9.2422 7.62939e-06 9.50683C7.62939e-06 9.77146 0.214506 9.98601 0.479137 9.98601Z" fill="#0B2101"/>
</svg>
