<svg width="23" height="19" viewBox="0 0 23 19" fill="none" xmlns="http://www.w3.org/2000/svg">
<path d="M22.5209 9.01399H1.63622L9.44366 1.20755C9.62752 1.01722 9.62222 0.713864 9.43189 0.530002C9.24618 0.350676 8.95182 0.350676 8.76616 0.530002L0.141285 9.15487C-0.046081 9.34174 -0.0464403 9.64514 0.140432 9.8325C0.140701 9.83277 0.141016 9.83309 0.141285 9.83336L8.76616 18.4582C8.95002 18.6486 9.25333 18.6538 9.4437 18.47C9.63403 18.2861 9.63929 17.9828 9.45547 17.7924C9.45161 17.7884 9.4477 17.7845 9.4437 17.7807L1.63622 9.97234H22.5208C22.7855 9.97234 23 9.7578 23 9.49317C23 9.22854 22.7855 9.01399 22.5209 9.01399Z" fill="#0B2101"/>
</svg>
