<svg width="18" height="18" viewBox="0 0 18 18" fill="none" xmlns="http://www.w3.org/2000/svg">
<path d="M9 0C4.03737 0 0 4.03737 0 9C0 13.9624 4.03737 18 9 18C13.9624 18 18 13.9624 18 9C18 4.03737 13.9629 0 9 0ZM9 17.1219C4.52162 17.1219 0.87807 13.4784 0.87807 9C0.87807 4.52162 4.52162 0.87807 9 0.87807C13.4784 0.87807 17.1219 4.52162 17.1219 9C17.1219 13.4784 13.4784 17.1219 9 17.1219ZM10.0337 2.79753C10.1162 2.88248 10.1612 2.99685 10.1582 3.11517L9.86863 12.1971C9.86248 12.435 9.66777 12.6249 9.4296 12.6249H8.57018C8.33223 12.6249 8.1373 12.435 8.13115 12.1971L7.84161 3.11517C7.83853 2.99685 7.88353 2.88227 7.96607 2.79753C8.04861 2.7128 8.1621 2.66494 8.28042 2.66494H9.71936C9.83746 2.66516 9.95117 2.7128 10.0337 2.79753ZM10.1397 13.83V15.4742C10.1397 15.7166 9.94305 15.9133 9.7007 15.9133H8.29908C8.05673 15.9133 7.86004 15.7166 7.86004 15.4742V13.83C7.86004 13.5877 8.05673 13.391 8.29908 13.391H9.7007C9.94327 13.391 10.1397 13.5873 10.1397 13.83Z" fill="white"/>
</svg>
